  0
SECTION
  2
HEADER
  9
$ACADVER
  1
AC1014
  9
$HANDSEED
  5
FFFF
  9
$MEASUREMENT
 70
     1
  0
ENDSEC
  0
SECTION
  2
TABLES
  0
TABLE
  2
VPORT
  5
8
330
0
100
AcDbSymbolTable
 70
     4
  0
VPORT
  5
2E
330
8
100
AcDbSymbolTableRecord
100
AcDbViewportTableRecord
  2
*ACTIVE
 70
     0
 10
0.0
 20
0.0
 11
1.0
 21
1.0
 12
210.0
 22
148.5
 13
0.0
 23
0.0
 14
10.0
 24
10.0
 15
10.0
 25
10.0
 16
0.0
 26
0.0
 36
1.0
 17
0.0
 27
0.0
 37
0.0
 40
341.0
 41
1.24
 42
50.0
 43
0.0
 44
0.0
 50
0.0
 51
0.0
 71
     0
 72
   100
 73
     1
 74
     3
 75
     0
 76
     0
 77
     0
 78
     0
  0
ENDTAB
  0
TABLE
  2
LTYPE
  5
5
330
0
100
AcDbSymbolTable
 70
     1
  0
LTYPE
  5
14
330
5
100
AcDbSymbolTableRecord
100
AcDbLinetypeTableRecord
  2
BYBLOCK
 70
     0
  3

 72
    65
 73
     0
 40
0.0
  0
LTYPE
  5
15
330
5
100
AcDbSymbolTableRecord
100
AcDbLinetypeTableRecord
  2
BYLAYER
 70
     0
  3

 72
    65
 73
     0
 40
0.0
  0
LTYPE
  5
16
330
5
100
AcDbSymbolTableRecord
100
AcDbLinetypeTableRecord
  2
CONTINUOUS
 70
     0
  3
Solid line
 72
    65
 73
     0
 40
0.0
  0
ENDTAB
  0
TABLE
  2
LAYER
  5
2
100
AcDbSymbolTable
 70
3
  0
LAYER
  5
50
100
AcDbSymbolTableRecord
100
AcDbLayerTableRecord
  2
0
 70
0
  6
CONTINUOUS
  0
LAYER
  5
51
100
AcDbSymbolTableRecord
100
AcDbLayerTableRecord
  2
imagen
 70
0
  6
CONTINUOUS
  0
LAYER
  5
52
100
AcDbSymbolTableRecord
100
AcDbLayerTableRecord
  2
imagen_jpg
 70
0
  6
CONTINUOUS
  0
ENDTAB
  0
TABLE
  2
STYLE
  5
3
330
0
100
AcDbSymbolTable
 70
     1
  0
STYLE
  5
11
330
3
100
AcDbSymbolTableRecord
100
AcDbTextStyleTableRecord
  2
STANDARD
 70
     0
 40
0.0
 41
1.0
 50
0.0
 71
     0
 42
2.5
  3
txt
  4

  0
ENDTAB
  0
TABLE
  2
VIEW
  5
6
330
0
100
AcDbSymbolTable
 70
     0
  0
ENDTAB
  0
TABLE
  2
UCS
  5
7
330
0
100
AcDbSymbolTable
 70
     0
  0
ENDTAB
  0
TABLE
  2
APPID
  5
9
330
0
100
AcDbSymbolTable
 70
     2
  0
APPID
  5
12
330
9
100
AcDbSymbolTableRecord
100
AcDbRegAppTableRecord
  2
ACAD
 70
     0
  0
ENDTAB
  0
TABLE
  2
DIMSTYLE
  5
A
330
0
100
AcDbSymbolTable
 70
     1
  0
DIMSTYLE
105
27
330
A
100
AcDbSymbolTableRecord
100
AcDbDimStyleTableRecord
  2
ISO-25
 70
     0
  3

  4

  5

  6

  7

 40
1.0
 41
2.5
 42
0.625
 43
3.75
 44
1.25
 45
0.0
 46
0.0
 47
0.0
 48
0.0
140
2.5
141
2.5
142
0.0
143
0.03937007874016
144
1.0
145
0.0
146
1.0
147
0.625
 71
     0
 72
     0
 73
     0
 74
     0
 75
     0
 76
     0
 77
     1
 78
     8
170
     0
171
     3
172
     1
173
     0
174
     0
175
     0
176
     0
177
     0
178
     0
270
     2
271
     2
272
     2
273
     2
274
     3
340
11
275
     0
280
     0
281
     0
282
     0
283
     0
284
     8
285
     0
286
     0
287
     3
288
     0
  0
ENDTAB
  0
TABLE
  2
BLOCK_RECORD
  5
1
330
0
100
AcDbSymbolTable
 70
     1
  0
BLOCK_RECORD
  5
1F
330
1
100
AcDbSymbolTableRecord
100
AcDbBlockTableRecord
  2
*MODEL_SPACE
  0
BLOCK_RECORD
  5
1B
330
1
100
AcDbSymbolTableRecord
100
AcDbBlockTableRecord
  2
*PAPER_SPACE
  0
ENDTAB
  0
ENDSEC
  0
SECTION
  2
BLOCKS
  0
BLOCK
  5
20
330
1F
100
AcDbEntity
  8
0
100
AcDbBlockBegin
  2
*MODEL_SPACE
 70
     0
 10
0.0
 20
0.0
 30
0.0
  3
*MODEL_SPACE
  1

  0
ENDBLK
  5
21
330
1F
100
AcDbEntity
  8
0
100
AcDbBlockEnd
  0
BLOCK
  5
1C
330
1B
100
AcDbEntity
 67
     1
  8
0
100
AcDbBlockBegin
  2
*PAPER_SPACE
  1

  0
ENDBLK
  5
1D
330
1B
100
AcDbEntity
 67
     1
  8
0
100
AcDbBlockEnd
  0
ENDSEC
  0
SECTION
  2
ENTITIES
  0
SPLINE
  5
100
100
AcDbEntity
  8
imagen
 62
7
100
AcDbSpline
 70
0
 71
3
 72
10
 73
6
 74
4
 40
0.000000
 40
0.000000
 40
0.000000
 40
0.000000
 40
3.806015
 40
6.845964
 40
9.884042
 40
9.884042
 40
9.884042
 40
9.884042
 10
67.416082
 20
187.178767
 30
0.0
 10
68.644753
 20
187.524440
 30
0.0
 10
70.854792
 20
188.146210
 30
0.0
 10
73.667693
 20
189.899612
 30
0.0
 10
75.448612
 20
190.861770
 30
0.0
 10
76.338798
 20
191.342701
 30
0.0
 11
67.416082
 21
187.178767
 31
0.0
 11
71.021196
 21
188.398973
 31
0.0
 11
73.681027
 21
189.870909
 31
0.0
 11
76.338798
 21
191.342701
 31
0.0
  0
SPLINE
  5
101
100
AcDbEntity
  8
imagen
 62
7
100
AcDbSpline
 70
0
 71
3
 72
10
 73
6
 74
4
 40
0.000000
 40
0.000000
 40
0.000000
 40
0.000000
 40
2.651173
 40
5.018494
 40
7.406252
 40
7.406252
 40
7.406252
 40
7.406252
 10
76.338798
 20
191.342701
 30
0.0
 10
77.135934
 20
191.729839
 30
0.0
 10
78.644860
 20
192.462668
 30
0.0
 10
81.080038
 20
192.998669
 30
0.0
 10
82.666326
 20
193.037594
 30
0.0
 10
83.462879
 20
193.057140
 30
0.0
 11
76.338798
 21
191.342701
 31
0.0
 11
78.769601
 21
192.400960
 31
0.0
 11
81.078974
 21
192.921542
 31
0.0
 11
83.462879
 21
193.057140
 31
0.0
  0
SPLINE
  5
102
100
AcDbEntity
  8
imagen
 62
7
100
AcDbSpline
 70
0
 71
3
 72
13
 73
9
 74
7
 40
0.000000
 40
0.000000
 40
0.000000
 40
0.000000
 40
0.932330
 40
1.690105
 40
2.525687
 40
3.469965
 40
4.573583
 40
6.031746
 40
6.031746
 40
6.031746
 40
6.031746
 10
83.462879
 20
193.057140
 30
0.0
 10
83.767540
 20
192.985706
 30
0.0
 10
84.319824
 20
192.856213
 30
0.0
 10
85.040767
 20
192.394873
 30
0.0
 10
85.628861
 20
191.784967
 30
0.0
 10
86.286556
 20
191.083117
 30
0.0
 10
86.894502
 20
190.063958
 30
0.0
 10
87.080104
 20
189.225024
 30
0.0
 10
87.185749
 20
188.747503
 30
0.0
 11
83.462879
 21
193.057140
 31
0.0
 11
84.355607
 21
192.788301
 31
0.0
 11
84.999207
 21
192.388296
 31
0.0
 11
85.602236
 21
191.809891
 31
0.0
 11
86.226399
 21
191.101315
 31
0.0
 11
86.785030
 21
190.149525
 31
0.0
 11
87.185749
 21
188.747503
 31
0.0
  0
SPLINE
  5
103
100
AcDbEntity
  8
imagen
 62
7
100
AcDbSpline
 70
0
 71
3
 72
10
 73
6
 74
4
 40
0.000000
 40
0.000000
 40
0.000000
 40
0.000000
 40
7.513488
 40
14.883975
 40
22.145498
 40
22.145498
 40
22.145498
 40
22.145498
 10
87.185749
 20
188.747503
 30
0.0
 10
87.629130
 20
186.282524
 30
0.0
 10
88.507453
 20
181.399480
 30
0.0
 10
89.590927
 20
174.095283
 30
0.0
 10
90.103762
 20
169.244570
 30
0.0
 10
90.358270
 20
166.837275
 30
0.0
 11
87.185749
 21
188.747503
 31
0.0
 11
88.477637
 21
181.345913
 31
0.0
 11
89.544739
 21
174.053084
 31
0.0
 11
90.358270
 21
166.837275
 31
0.0
  0
SPLINE
  5
104
100
AcDbEntity
  8
imagen
 62
7
100
AcDbSpline
 70
0
 71
3
 72
10
 73
6
 74
4
 40
0.000000
 40
0.000000
 40
0.000000
 40
0.000000
 40
7.442739
 40
14.987094
 40
22.410547
 40
22.410547
 40
22.410547
 40
22.410547
 10
90.358270
 20
166.837275
 30
0.0
 10
90.396263
 20
164.356918
 30
0.0
 10
90.472769
 20
159.362340
 30
0.0
 10
90.818190
 20
151.893139
 30
0.0
 10
90.533835
 20
146.908507
 30
0.0
 10
90.392806
 20
144.436322
 30
0.0
 11
90.358270
 21
166.837275
 31
0.0
 11
90.510352
 21
159.396090
 31
0.0
 11
90.689200
 21
151.853855
 31
0.0
 11
90.392806
 21
144.436322
 31
0.0
  0
SPLINE
  5
105
100
AcDbEntity
  8
imagen
 62
7
100
AcDbSpline
 70
0
 71
3
 72
10
 73
6
 74
4
 40
0.000000
 40
0.000000
 40
0.000000
 40
0.000000
 40
4.045110
 40
7.958482
 40
11.199434
 40
11.199434
 40
11.199434
 40
11.199434
 10
87.348462
 20
123.203594
 30
0.0
 10
87.144233
 20
121.871165
 30
0.0
 10
86.742426
 20
119.249699
 30
0.0
 10
86.231938
 20
115.546063
 30
0.0
 10
85.619880
 20
113.239026
 30
0.0
 10
85.342614
 20
112.193925
 30
0.0
 11
87.348462
 21
123.203594
 31
0.0
 11
86.745863
 21
119.203621
 31
0.0
 11
86.115730
 21
115.341314
 31
0.0
 11
85.342614
 21
112.193925
 31
0.0
  0
LWPOLYLINE
  5
106
100
AcDbEntity
  8
imagen
 62
7
100
AcDbPolyline
 90
2
 70
0
 10
90.392806
 20
144.436322
 30
0.0
 10
87.348462
 20
123.203594
 30
0.0
  0
SPLINE
  5
107
100
AcDbEntity
  8
imagen
 62
7
100
AcDbSpline
 70
0
 71
3
 72
10
 73
6
 74
4
 40
0.000000
 40
0.000000
 40
0.000000
 40
0.000000
 40
1.275642
 40
2.615144
 40
4.201929
 40
4.201929
 40
4.201929
 40
4.201929
 10
85.342614
 20
112.193925
 30
0.0
 10
85.073479
 20
111.864880
 30
0.0
 10
84.521736
 20
111.190318
 30
0.0
 10
83.482256
 20
110.231316
 30
0.0
 10
82.608718
 20
109.787054
 30
0.0
 10
82.135041
 20
109.546152
 30
0.0
 11
85.342614
 21
112.193925
 31
0.0
 11
84.512559
 21
111.225281
 31
0.0
 11
83.512078
 21
110.334605
 31
0.0
 11
82.135041
 21
109.546152
 31
0.0
  0
SPLINE
  5
108
100
AcDbEntity
  8
imagen
 62
7
100
AcDbSpline
 70
0
 71
3
 72
10
 73
6
 74
4
 40
0.000000
 40
0.000000
 40
0.000000
 40
0.000000
 40
1.460049
 40
2.525560
 40
3.565397
 40
3.565397
 40
3.565397
 40
3.565397
 10
77.131929
 20
109.055427
 30
0.0
 10
76.639382
 20
109.024616
 30
0.0
 10
75.787386
 20
108.971319
 30
0.0
 10
74.661960
 20
109.480584
 30
0.0
 10
74.184320
 20
110.000406
 30
0.0
 10
73.948412
 20
110.257148
 30
0.0
 11
77.131929
 21
109.055427
 31
0.0
 11
75.672603
 21
109.101368
 31
0.0
 11
74.701732
 21
109.540371
 31
0.0
 11
73.948412
 21
110.257148
 31
0.0
  0
SPLINE
  5
109
100
AcDbEntity
  8
imagen
 62
7
100
AcDbSpline
 70
0
 71
3
 72
10
 73
6
 74
4
 40
0.000000
 40
0.000000
 40
0.000000
 40
0.000000
 40
2.797846
 40
5.508842
 40
7.688142
 40
7.688142
 40
7.688142
 40
7.688142
 10
73.948412
 20
110.257148
 30
0.0
 10
74.000305
 20
111.188827
 30
0.0
 10
74.102480
 20
113.023265
 30
0.0
 10
74.502230
 20
115.558620
 30
0.0
 10
74.587425
 20
117.187367
 30
0.0
 10
74.625391
 20
117.913198
 30
0.0
 11
73.948412
 21
110.257148
 31
0.0
 11
74.151620
 21
113.047604
 31
0.0
 11
74.477914
 21
115.738892
 31
0.0
 11
74.625391
 21
117.913198
 31
0.0
  0
SPLINE
  5
10a
100
AcDbEntity
  8
imagen
 62
7
100
AcDbSpline
 70
0
 71
3
 72
10
 73
6
 74
4
 40
0.000000
 40
0.000000
 40
0.000000
 40
0.000000
 40
2.472059
 40
4.159573
 40
5.843045
 40
5.843045
 40
5.843045
 40
5.843045
 10
74.625391
 20
117.913198
 30
0.0
 10
74.745392
 20
118.728728
 30
0.0
 10
74.947312
 20
120.100969
 30
0.0
 10
75.092375
 20
122.044447
 30
0.0
 10
75.130208
 20
123.167489
 30
0.0
 10
75.149101
 20
123.728337
 30
0.0
 11
74.625391
 21
117.913198
 31
0.0
 11
74.950553
 21
120.363778
 31
0.0
 11
75.080984
 21
122.046244
 31
0.0
 11
75.149101
 21
123.728337
 31
0.0
  0
SPLINE
  5
10b
100
AcDbEntity
  8
imagen
 62
7
100
AcDbSpline
 70
0
 71
3
 72
10
 73
6
 74
4
 40
0.000000
 40
0.000000
 40
0.000000
 40
0.000000
 40
2.007415
 40
3.300807
 40
4.392095
 40
4.392095
 40
4.392095
 40
4.392095
 10
75.149101
 20
123.728337
 30
0.0
 10
75.160374
 20
124.398574
 30
0.0
 10
75.178910
 20
125.500648
 30
0.0
 10
74.979467
 20
126.954504
 30
0.0
 10
74.823782
 20
127.733889
 30
0.0
 10
74.752536
 20
128.090554
 30
0.0
 11
75.149101
 21
123.728337
 31
0.0
 11
75.120627
 21
125.735551
 31
0.0
 11
74.956347
 21
127.018467
 31
0.0
 11
74.752536
 21
128.090554
 31
0.0
  0
SPLINE
  5
10c
100
AcDbEntity
  8
imagen
 62
7
100
AcDbSpline
 70
0
 71
3
 72
10
 73
6
 74
4
 40
0.000000
 40
0.000000
 40
0.000000
 40
0.000000
 40
1.445571
 40
2.476402
 40
3.428476
 40
3.428476
 40
3.428476
 40
3.428476
 10
74.752536
 20
128.090554
 30
0.0
 10
74.487113
 20
128.496934
 30
0.0
 10
74.032417
 20
129.193100
 30
0.0
 10
73.100121
 20
129.891692
 30
0.0
 10
72.483132
 20
130.132851
 30
0.0
 10
72.186890
 20
130.248641
 30
0.0
 11
74.752536
 21
128.090554
 31
0.0
 11
73.881742
 21
129.244414
 31
0.0
 11
73.057684
 21
129.863721
 31
0.0
 11
72.186890
 21
130.248641
 31
0.0
  0
SPLINE
  5
10d
100
AcDbEntity
  8
imagen
 62
7
100
AcDbSpline
 70
0
 71
3
 72
10
 73
6
 74
4
 40
0.000000
 40
0.000000
 40
0.000000
 40
0.000000
 40
1.253278
 40
1.971355
 40
2.625337
 40
2.625337
 40
2.625337
 40
2.625337
 10
72.186890
 20
130.248641
 30
0.0
 10
71.779280
 20
130.343059
 30
0.0
 10
71.138125
 20
130.491573
 30
0.0
 10
70.266142
 20
130.575845
 30
0.0
 10
69.813120
 20
130.638408
 30
0.0
 10
69.597191
 20
130.668228
 30
0.0
 11
72.186890
 21
130.248641
 31
0.0
 11
70.958556
 21
130.497444
 31
0.0
 11
70.245591
 21
130.582976
 31
0.0
 11
69.597191
 21
130.668228
 31
0.0
  0
SPLINE
  5
10e
100
AcDbEntity
  8
imagen
 62
7
100
AcDbSpline
 70
0
 71
3
 72
10
 73
6
 74
4
 40
0.000000
 40
0.000000
 40
0.000000
 40
0.000000
 40
0.826335
 40
1.460944
 40
2.088033
 40
2.088033
 40
2.088033
 40
2.088033
 10
69.597191
 20
130.668228
 30
0.0
 10
69.331243
 20
130.556216
 30
0.0
 10
68.861052
 20
130.358181
 30
0.0
 10
68.586511
 20
129.679259
 30
0.0
 10
68.466929
 20
129.280271
 30
0.0
 10
68.407494
 20
129.081967
 30
0.0
 11
69.597191
 21
130.668228
 31
0.0
 11
68.888318
 21
130.243577
 31
0.0
 11
68.597238
 21
129.679661
 31
0.0
 11
68.407494
 21
129.081967
 31
0.0
  0
SPLINE
  5
10f
100
AcDbEntity
  8
imagen
 62
7
100
AcDbSpline
 70
0
 71
3
 72
10
 73
6
 74
4
 40
0.000000
 40
0.000000
 40
0.000000
 40
0.000000
 40
0.415999
 40
0.846475
 40
1.617835
 40
1.617835
 40
1.617835
 40
1.617835
 10
68.407494
 20
129.081967
 30
0.0
 10
68.411263
 20
128.943918
 30
0.0
 10
68.418930
 20
128.663016
 30
0.0
 10
68.407566
 20
128.112092
 30
0.0
 10
68.634411
 20
127.765968
 30
0.0
 10
68.780004
 20
127.543819
 30
0.0
 11
68.407494
 21
129.081967
 31
0.0
 11
68.415511
 21
128.666045
 31
0.0
 11
68.440146
 21
128.236275
 31
0.0
 11
68.780004
 21
127.543819
 31
0.0
  0
SPLINE
  5
110
100
AcDbEntity
  8
imagen
 62
7
100
AcDbSpline
 70
0
 71
3
 72
10
 73
6
 74
4
 40
0.000000
 40
0.000000
 40
0.000000
 40
0.000000
 40
0.573419
 40
1.068726
 40
1.586499
 40
1.586499
 40
1.586499
 40
1.586499
 10
68.780004
 20
127.543819
 30
0.0
 10
68.953656
 20
127.466779
 30
0.0
 10
69.277306
 20
127.323194
 30
0.0
 10
69.693225
 20
126.934656
 30
0.0
 10
69.698577
 20
126.582996
 30
0.0
 10
69.701312
 20
126.403267
 30
0.0
 11
68.780004
 21
127.543819
 31
0.0
 11
69.288447
 21
127.278687
 31
0.0
 11
69.625129
 21
126.915405
 31
0.0
 11
69.701312
 21
126.403267
 31
0.0
  0
SPLINE
  5
111
100
AcDbEntity
  8
imagen
 62
7
100
AcDbSpline
 70
0
 71
3
 72
13
 73
9
 74
7
 40
0.000000
 40
0.000000
 40
0.000000
 40
0.000000
 40
3.490762
 40
6.891931
 40
10.253985
 40
13.506248
 40
16.570984
 40
19.353427
 40
19.353427
 40
19.353427
 40
19.353427
 10
69.701312
 20
126.403267
 30
0.0
 10
69.679440
 20
125.239595
 30
0.0
 10
69.636259
 20
122.942117
 30
0.0
 10
69.359538
 20
119.534033
 30
0.0
 10
69.219071
 20
116.198311
 30
0.0
 10
69.099766
 20
112.973930
 30
0.0
 10
68.855098
 20
109.949359
 30
0.0
 10
68.820516
 20
108.000151
 30
0.0
 10
68.804060
 20
107.072599
 30
0.0
 11
69.701312
 21
126.403267
 31
0.0
 11
69.599061
 21
122.914002
 31
0.0
 11
69.380652
 21
119.519853
 31
0.0
 11
69.220435
 21
116.161619
 31
0.0
 11
69.073071
 21
112.912697
 31
0.0
 11
68.881199
 21
109.853973
 31
0.0
 11
68.804060
 21
107.072599
 31
0.0
  0
LWPOLYLINE
  5
112
100
AcDbEntity
  8
imagen
 62
7
100
AcDbPolyline
 90
2
 70
0
 10
82.135041
 20
109.546152
 30
0.0
 10
77.131929
 20
109.055427
 30
0.0
  0
SPLINE
  5
113
100
AcDbEntity
  8
imagen
 62
7
100
AcDbSpline
 70
0
 71
3
 72
10
 73
6
 74
4
 40
0.000000
 40
0.000000
 40
0.000000
 40
0.000000
 40
0.615975
 40
1.228571
 40
2.017386
 40
2.017386
 40
2.017386
 40
2.017386
 10
68.804060
 20
107.072599
 30
0.0
 10
68.802342
 20
106.865816
 30
0.0
 10
68.798917
 20
106.453385
 30
0.0
 10
69.122802
 20
105.815611
 30
0.0
 10
69.553208
 20
105.604926
 30
0.0
 10
69.795472
 20
105.486338
 30
0.0
 11
68.804060
 21
107.072599
 31
0.0
 11
68.849351
 21
106.458292
 31
0.0
 11
69.133761
 21
105.915719
 31
0.0
 11
69.795472
 21
105.486338
 31
0.0
  0
SPLINE
  5
114
100
AcDbEntity
  8
imagen
 62
7
100
AcDbSpline
 70
0
 71
3
 72
10
 73
6
 74
4
 40
0.000000
 40
0.000000
 40
0.000000
 40
0.000000
 40
0.911530
 40
1.882522
 40
2.983874
 40
2.983874
 40
2.983874
 40
2.983874
 10
83.080405
 20
104.891491
 30
0.0
 10
83.384211
 20
104.893946
 30
0.0
 10
84.011641
 20
104.899016
 30
0.0
 10
85.006295
 20
104.943637
 30
0.0
 10
85.690841
 20
105.039061
 30
0.0
 10
86.054644
 20
105.089775
 30
0.0
 11
83.080405
 21
104.891491
 31
0.0
 11
83.991845
 21
104.904267
 31
0.0
 11
84.961467
 21
104.955833
 31
0.0
 11
86.054644
 21
105.089775
 31
0.0
  0
SPLINE
  5
115
100
AcDbEntity
  8
imagen
 62
7
100
AcDbSpline
 70
0
 71
3
 72
10
 73
6
 74
4
 40
0.000000
 40
0.000000
 40
0.000000
 40
0.000000
 40
0.774415
 40
1.451323
 40
2.829327
 40
2.829327
 40
2.829327
 40
2.829327
 10
86.054644
 20
105.089775
 30
0.0
 10
86.293837
 20
105.190431
 30
0.0
 10
86.742104
 20
105.379070
 30
0.0
 10
87.478760
 20
105.982567
 30
0.0
 10
87.918109
 20
106.509161
 30
0.0
 10
88.212732
 20
106.862290
 30
0.0
 11
86.054644
 21
105.089775
 31
0.0
 11
86.752178
 21
105.426175
 31
0.0
 11
87.285838
 21
105.842602
 31
0.0
 11
88.212732
 21
106.862290
 31
0.0
  0
LWPOLYLINE
  5
116
100
AcDbEntity
  8
imagen
 62
7
100
AcDbPolyline
 90
2
 70
0
 10
69.795472
 20
105.486338
 30
0.0
 10
83.080405
 20
104.891491
 30
0.0
  0
SPLINE
  5
117
100
AcDbEntity
  8
imagen
 62
7
100
AcDbSpline
 70
0
 71
3
 72
10
 73
6
 74
4
 40
0.000000
 40
0.000000
 40
0.000000
 40
0.000000
 40
3.380083
 40
7.613944
 40
11.957149
 40
11.957149
 40
11.957149
 40
11.957149
 10
88.212732
 20
106.862290
 30
0.0
 10
88.696582
 20
107.883869
 30
0.0
 10
89.786500
 20
110.185069
 30
0.0
 10
90.594362
 20
114.111212
 30
0.0
 10
91.296873
 20
116.879693
 30
0.0
 10
91.652606
 20
118.281580
 30
0.0
 11
88.212732
 21
106.862290
 31
0.0
 11
89.550866
 21
109.966215
 31
0.0
 11
90.616950
 21
114.063660
 31
0.0
 11
91.652606
 21
118.281580
 31
0.0
  0
SPLINE
  5
118
100
AcDbEntity
  8
imagen
 62
7
100
AcDbSpline
 70
0
 71
3
 72
10
 73
6
 74
4
 40
0.000000
 40
0.000000
 40
0.000000
 40
0.000000
 40
5.513336
 40
11.186908
 40
17.505683
 40
17.505683
 40
17.505683
 40
17.505683
 10
94.184232
 20
130.866510
 30
0.0
 10
94.511386
 20
132.674920
 30
0.0
 10
95.175204
 20
136.344298
 30
0.0
 10
96.207592
 20
142.087716
 30
0.0
 10
96.830341
 20
146.036487
 30
0.0
 10
97.158469
 20
148.117097
 30
0.0
 11
94.184232
 21
130.866510
 31
0.0
 11
95.164706
 21
136.291963
 31
0.0
 11
96.150630
 21
141.879214
 31
0.0
 11
97.158469
 21
148.117097
 31
0.0
  0
SPLINE
  5
119
100
AcDbEntity
  8
imagen
 62
7
100
AcDbSpline
 70
0
 71
3
 72
10
 73
6
 74
4
 40
0.000000
 40
0.000000
 40
0.000000
 40
0.000000
 40
3.871382
 40
6.506098
 40
9.179695
 40
9.179695
 40
9.179695
 40
9.179695
 10
97.158469
 20
148.117097
 30
0.0
 10
97.289197
 20
149.401970
 30
0.0
 10
97.508894
 20
151.561278
 30
0.0
 10
97.505520
 20
154.624049
 30
0.0
 10
97.631007
 20
156.389469
 30
0.0
 10
97.694210
 20
157.278644
 30
0.0
 11
97.158469
 21
148.117097
 31
0.0
 11
97.472018
 21
151.975761
 31
0.0
 11
97.536929
 21
154.609677
 31
0.0
 11
97.694210
 21
157.278644
 31
0.0
  0
LWPOLYLINE
  5
11a
100
AcDbEntity
  8
imagen
 62
7
100
AcDbPolyline
 90
2
 70
0
 10
91.652606
 20
118.281580
 30
0.0
 10
94.184232
 20
130.866510
 30
0.0
  0
SPLINE
  5
11b
100
AcDbEntity
  8
imagen
 62
7
100
AcDbSpline
 70
0
 71
3
 72
10
 73
6
 74
4
 40
0.000000
 40
0.000000
 40
0.000000
 40
0.000000
 40
4.711853
 40
7.422546
 40
9.526642
 40
9.526642
 40
9.526642
 40
9.526642
 10
97.694210
 20
157.278644
 30
0.0
 10
97.750881
 20
158.847889
 30
0.0
 10
97.840155
 20
161.319909
 30
0.0
 10
97.670864
 20
164.503585
 30
0.0
 10
97.314293
 20
166.070783
 30
0.0
 10
97.158469
 20
166.755659
 30
0.0
 11
97.694210
 21
157.278644
 31
0.0
 11
97.775096
 21
161.989803
 31
0.0
 11
97.574185
 21
164.693040
 31
0.0
 11
97.158469
 21
166.755659
 31
0.0
  0
SPLINE
  5
11c
100
AcDbEntity
  8
imagen
 62
7
100
AcDbSpline
 70
0
 71
3
 72
10
 73
6
 74
4
 40
0.000000
 40
0.000000
 40
0.000000
 40
0.000000
 40
1.123951
 40
2.314973
 40
3.429418
 40
3.429418
 40
3.429418
 40
3.429418
 10
87.868741
 20
210.476457
 30
0.0
 10
87.779954
 20
210.840826
 30
0.0
 10
87.597081
 20
211.591309
 30
0.0
 10
87.186560
 20
212.660122
 30
0.0
 10
86.958175
 20
213.393921
 30
0.0
 10
86.847775
 20
213.748633
 30
0.0
 11
87.868741
 21
210.476457
 31
0.0
 11
87.580164
 21
211.562730
 31
0.0
 11
87.190095
 21
212.688065
 31
0.0
 11
86.847775
 21
213.748633
 31
0.0
  0
SPLINE
  5
11d
100
AcDbEntity
  8
imagen
 62
7
100
AcDbSpline
 70
0
 71
3
 72
10
 73
6
 74
4
 40
0.000000
 40
0.000000
 40
0.000000
 40
0.000000
 40
0.696962
 40
1.479377
 40
2.778174
 40
2.778174
 40
2.778174
 40
2.778174
 10
86.847775
 20
213.748633
 30
0.0
 10
86.737053
 20
213.959188
 30
0.0
 10
86.502032
 20
214.406114
 30
0.0
 10
85.552478
 20
214.775415
 30
0.0
 10
84.884957
 20
214.509456
 30
0.0
 10
84.468385
 20
214.343483
 30
0.0
 11
86.847775
 21
213.748633
 31
0.0
 11
86.455543
 21
214.324750
 31
0.0
 11
85.735165
 21
214.630084
 31
0.0
 11
84.468385
 21
214.343483
 31
0.0
  0
SPLINE
  5
11e
100
AcDbEntity
  8
imagen
 62
7
100
AcDbSpline
 70
0
 71
3
 72
10
 73
6
 74
4
 40
0.000000
 40
0.000000
 40
0.000000
 40
0.000000
 40
0.904828
 40
1.813092
 40
2.827047
 40
2.827047
 40
2.827047
 40
2.827047
 10
84.468385
 20
214.343483
 30
0.0
 10
84.208312
 20
214.190697
 30
0.0
 10
83.687177
 20
213.884546
 30
0.0
 10
82.855636
 20
213.440556
 30
0.0
 10
82.307844
 20
213.107936
 30
0.0
 10
82.018889
 20
212.932481
 30
0.0
 11
84.468385
 21
214.343483
 31
0.0
 11
83.685135
 21
213.890457
 31
0.0
 11
82.890654
 21
213.450293
 31
0.0
 11
82.018889
 21
212.932481
 31
0.0
  0
LWPOLYLINE
  5
11f
100
AcDbEntity
  8
imagen
 62
7
100
AcDbPolyline
 90
6
 70
0
 10
97.158469
 20
166.755659
 30
0.0
 10
95.572210
 20
175.678375
 30
0.0
 10
93.787666
 20
186.187353
 30
0.0
 10
92.003123
 20
193.920375
 30
0.0
 10
89.425449
 20
202.644809
 30
0.0
 10
87.868741
 20
210.476457
 30
0.0
  0
SPLINE
  5
120
100
AcDbEntity
  8
imagen
 62
7
100
AcDbSpline
 70
0
 71
3
 72
10
 73
6
 74
4
 40
0.000000
 40
0.000000
 40
0.000000
 40
0.000000
 40
0.827629
 40
1.588565
 40
2.399309
 40
2.399309
 40
2.399309
 40
2.399309
 10
82.018889
 20
212.932481
 30
0.0
 10
81.813040
 20
212.748162
 30
0.0
 10
81.417931
 20
212.394378
 30
0.0
 10
80.952947
 20
211.729302
 30
0.0
 10
80.786748
 20
211.230159
 30
0.0
 10
80.701015
 20
210.972678
 30
0.0
 11
82.018889
 21
212.932481
 31
0.0
 11
81.425024
 21
212.356031
 31
0.0
 11
80.995039
 21
211.728228
 31
0.0
 11
80.701015
 21
210.972678
 31
0.0
  0
SPLINE
  5
121
100
AcDbEntity
  8
imagen
 62
7
100
AcDbSpline
 70
0
 71
3
 72
10
 73
6
 74
4
 40
0.000000
 40
0.000000
 40
0.000000
 40
0.000000
 40
0.522412
 40
0.984531
 40
1.438018
 40
1.438018
 40
1.438018
 40
1.438018
 10
80.701015
 20
209.981266
 30
0.0
 10
80.775227
 20
209.821559
 30
0.0
 10
80.915088
 20
209.520579
 30
0.0
 10
81.288696
 20
209.201969
 30
0.0
 10
81.558699
 20
209.060111
 30
0.0
 10
81.692427
 20
208.989851
 30
0.0
 11
80.701015
 21
209.981266
 31
0.0
 11
80.956293
 21
209.525473
 31
0.0
 11
81.299121
 21
209.215597
 31
0.0
 11
81.692427
 21
208.989851
 31
0.0
  0
SPLINE
  5
122
100
AcDbEntity
  8
imagen
 62
7
100
AcDbSpline
 70
0
 71
3
 72
10
 73
6
 74
4
 40
0.000000
 40
0.000000
 40
0.000000
 40
0.000000
 40
0.562323
 40
1.017346
 40
1.800821
 40
1.800821
 40
1.800821
 40
1.800821
 10
81.692427
 20
208.989851
 30
0.0
 10
81.873041
 20
208.943519
 30
0.0
 10
82.199804
 20
208.859697
 30
0.0
 10
82.821495
 20
208.819825
 30
0.0
 10
83.108271
 20
208.491204
 30
0.0
 10
83.289685
 20
208.283318
 30
0.0
 11
81.692427
 21
208.989851
 31
0.0
 11
82.241738
 21
208.869583
 31
0.0
 11
82.689101
 21
208.786441
 31
0.0
 11
83.289685
 21
208.283318
 31
0.0
  0
LWPOLYLINE
  5
123
100
AcDbEntity
  8
imagen
 62
7
100
AcDbPolyline
 90
2
 70
0
 10
80.701015
 20
210.972678
 30
0.0
 10
80.701015
 20
209.981266
 30
0.0
  0
SPLINE
  5
124
100
AcDbEntity
  8
imagen
 62
7
100
AcDbSpline
 70
0
 71
3
 72
10
 73
6
 74
4
 40
0.000000
 40
0.000000
 40
0.000000
 40
0.000000
 40
0.510204
 40
1.057932
 40
1.630370
 40
1.630370
 40
1.630370
 40
1.630370
 10
83.289685
 20
208.283318
 30
0.0
 10
83.359567
 20
208.120953
 30
0.0
 10
83.504472
 20
207.784280
 30
0.0
 10
83.293607
 20
207.250005
 30
0.0
 10
83.189581
 20
206.895662
 30
0.0
 10
83.136420
 20
206.714582
 30
0.0
 11
83.289685
 21
208.283318
 31
0.0
 11
83.433807
 21
207.793893
 31
0.0
 11
83.306570
 21
207.261148
 31
0.0
 11
83.136420
 21
206.714582
 31
0.0
  0
SPLINE
  5
125
100
AcDbEntity
  8
imagen
 62
7
100
AcDbSpline
 70
0
 71
3
 72
10
 73
6
 74
4
 40
0.000000
 40
0.000000
 40
0.000000
 40
0.000000
 40
2.138215
 40
3.814103
 40
4.708415
 40
4.708415
 40
4.708415
 40
4.708415
 10
84.068724
 20
203.367497
 30
0.0
 10
84.238979
 20
202.677937
 30
0.0
 10
84.542677
 20
201.447914
 30
0.0
 10
85.192752
 20
199.972152
 30
0.0
 10
85.134140
 20
199.108782
 30
0.0
 10
85.113746
 20
198.808369
 30
0.0
 11
84.068724
 21
203.367497
 31
0.0
 11
84.649544
 21
201.309680
 31
0.0
 11
85.124869
 21
199.702612
 31
0.0
 11
85.113746
 21
198.808369
 31
0.0
  0
SPLINE
  5
126
100
AcDbEntity
  8
imagen
 62
7
100
AcDbSpline
 70
0
 71
3
 72
10
 73
6
 74
4
 40
0.000000
 40
0.000000
 40
0.000000
 40
0.000000
 40
0.479325
 40
1.024715
 40
1.676131
 40
1.676131
 40
1.676131
 40
1.676131
 10
85.113746
 20
198.808369
 30
0.0
 10
84.981635
 20
198.709633
 30
0.0
 10
84.699202
 20
198.498554
 30
0.0
 10
84.115304
 20
198.544473
 30
0.0
 10
83.721092
 20
198.510410
 30
0.0
 10
83.506524
 20
198.491869
 30
0.0
 11
85.113746
 21
198.808369
 31
0.0
 11
84.701102
 21
198.564490
 31
0.0
 11
84.156955
 21
198.527686
 31
0.0
 11
83.506524
 21
198.491869
 31
0.0
  0
SPLINE
  5
127
100
AcDbEntity
  8
imagen
 62
7
100
AcDbSpline
 70
0
 71
3
 72
10
 73
6
 74
4
 40
0.000000
 40
0.000000
 40
0.000000
 40
0.000000
 40
1.474278
 40
2.731831
 40
4.177848
 40
4.177848
 40
4.177848
 40
4.177848
 10
83.506524
 20
198.491869
 30
0.0
 10
83.014858
 20
198.511877
 30
0.0
 10
82.103802
 20
198.548951
 30
0.0
 10
80.715211
 20
198.409701
 30
0.0
 10
79.824493
 20
198.274047
 30
0.0
 10
79.348089
 20
198.201492
 30
0.0
 11
83.506524
 21
198.491869
 31
0.0
 11
82.032421
 21
198.514576
 31
0.0
 11
80.779552
 21
198.406129
 31
0.0
 11
79.348089
 21
198.201492
 31
0.0
  0
SPLINE
  5
128
100
AcDbEntity
  8
imagen
 62
7
100
AcDbSpline
 70
0
 71
3
 72
10
 73
6
 74
4
 40
0.000000
 40
0.000000
 40
0.000000
 40
0.000000
 40
1.622047
 40
3.113757
 40
4.781712
 40
4.781712
 40
4.781712
 40
4.781712
 10
79.348089
 20
198.201492
 30
0.0
 10
78.820284
 20
198.083954
 30
0.0
 10
77.807084
 20
197.858324
 30
0.0
 10
76.271123
 20
197.428013
 30
0.0
 10
75.277212
 20
197.078905
 30
0.0
 10
74.752536
 20
196.894614
 30
0.0
 11
79.348089
 21
198.201492
 31
0.0
 11
77.768204
 21
197.834068
 31
0.0
 11
76.332421
 21
197.429437
 31
0.0
 11
74.752536
 21
196.894614
 31
0.0
  0
SPLINE
  5
129
100
AcDbEntity
  8
imagen
 62
7
100
AcDbSpline
 70
0
 71
3
 72
10
 73
6
 74
4
 40
0.000000
 40
0.000000
 40
0.000000
 40
0.000000
 40
1.223240
 40
2.431835
 40
4.144621
 40
4.144621
 40
4.144621
 40
4.144621
 10
74.752536
 20
196.894614
 30
0.0
 10
74.368129
 20
196.758567
 30
0.0
 10
73.603918
 20
196.488102
 30
0.0
 10
72.318807
 20
195.980061
 30
0.0
 10
71.426304
 20
195.590411
 30
0.0
 10
70.903036
 20
195.361962
 30
0.0
 11
74.752536
 21
196.894614
 31
0.0
 11
73.601891
 21
196.479483
 31
0.0
 11
72.477420
 21
196.036464
 31
0.0
 11
70.903036
 21
195.361962
 31
0.0
  0
SPLINE
  5
12a
100
AcDbEntity
  8
imagen
 62
7
100
AcDbSpline
 70
0
 71
3
 72
10
 73
6
 74
4
 40
0.000000
 40
0.000000
 40
0.000000
 40
0.000000
 40
1.405062
 40
2.759922
 40
4.682896
 40
4.682896
 40
4.682896
 40
4.682896
 10
70.903036
 20
195.361962
 30
0.0
 10
70.474802
 20
195.171922
 30
0.0
 10
69.633634
 20
194.798633
 30
0.0
 10
68.309336
 20
193.948430
 30
0.0
 10
67.566160
 20
193.140868
 30
0.0
 10
67.130168
 20
192.667104
 30
0.0
 11
70.903036
 21
195.361962
 31
0.0
 11
69.634059
 21
194.758723
 31
0.0
 11
68.501394
 21
194.015276
 31
0.0
 11
67.130168
 21
192.667104
 31
0.0
  0
SPLINE
  5
12b
100
AcDbEntity
  8
imagen
 62
7
100
AcDbSpline
 70
0
 71
3
 72
10
 73
6
 74
4
 40
0.000000
 40
0.000000
 40
0.000000
 40
0.000000
 40
1.062831
 40
1.912662
 40
3.685689
 40
3.685689
 40
3.685689
 40
3.685689
 10
67.130168
 20
192.667104
 30
0.0
 10
66.978474
 20
192.346421
 30
0.0
 10
66.705488
 20
191.769321
 30
0.0
 10
66.339774
 20
190.593721
 30
0.0
 10
66.153812
 20
189.739224
 30
0.0
 10
66.028104
 20
189.161592
 30
0.0
 11
67.130168
 21
192.667104
 31
0.0
 11
66.700778
 21
191.694873
 31
0.0
 11
66.439178
 21
190.886307
 31
0.0
 11
66.028104
 21
189.161592
 31
0.0
  0
LWPOLYLINE
  5
12c
100
AcDbEntity
  8
imagen
 62
7
100
AcDbPolyline
 90
2
 70
0
 10
83.136420
 20
206.714582
 30
0.0
 10
84.068724
 20
203.367497
 30
0.0
  0
SPLINE
  5
12d
100
AcDbEntity
  8
imagen
 62
7
100
AcDbSpline
 70
0
 71
3
 72
10
 73
6
 74
4
 40
0.000000
 40
0.000000
 40
0.000000
 40
0.000000
 40
0.698428
 40
1.520675
 40
2.800930
 40
2.800930
 40
2.800930
 40
2.800930
 10
66.028104
 20
189.161592
 30
0.0
 10
65.974901
 20
188.932608
 30
0.0
 10
65.859063
 20
188.434044
 30
0.0
 10
66.247883
 20
187.467124
 30
0.0
 10
66.973960
 20
187.287900
 30
0.0
 10
67.416082
 20
187.178767
 30
0.0
 11
66.028104
 21
189.161592
 31
0.0
 11
65.937461
 21
188.469071
 31
0.0
 11
66.250713
 21
187.708832
 31
0.0
 11
67.416082
 21
187.178767
 31
0.0
  0
LWPOLYLINE
  5
12e
100
AcDbEntity
  8
imagen
 62
7
100
AcDbPolyline
 90
1
 70
1
 10
67.416082
 20
187.178767
 30
0.0
  0
ENDSEC
  0
SECTION
  2
OBJECTS
  0
DICTIONARY
  5
C
330
0
100
AcDbDictionary
  3
ACAD_GROUP
350
D
  3
ACAD_MLINESTYLE
350
17
  0
DICTIONARY
  5
D
330
C
100
AcDbDictionary
  0
DICTIONARY
  5
1A
330
C
100
AcDbDictionary
  0
DICTIONARY
  5
17
330
C
100
AcDbDictionary
  3
STANDARD
350
18
  0
DICTIONARY
  5
19
330
C
100
AcDbDictionary
  0
ENDSEC
  0
EOF
