# Blender v2.79 (sub 6) OBJ File: 'plantilla_hologramas2.blend'
# www.blender.org
mtllib plantilla_hologramas2.mtl
o Plane.004_Plane.005
v -146.768738 21.393181 26.195372
v 41.231247 21.393181 26.195372
v -146.768738 21.393181 -33.804626
v 41.231247 21.393181 -33.804626
v -146.768738 23.454309 -33.804626
v -146.768738 23.454309 26.195372
v 41.231247 23.454309 26.195372
v 41.231247 23.454309 -33.804626
v 35.361954 23.454309 22.388712
v 35.361954 21.393181 22.388712
v -26.357069 23.454309 22.388735
v -26.357071 21.393181 22.388735
v -29.062120 23.454309 22.388697
v -29.062124 21.393181 22.388697
v -40.191776 23.454309 22.388708
v -40.191776 21.393181 22.388712
v -104.903366 23.454309 22.388739
v -104.903366 21.393181 22.388735
v -43.184357 23.454309 22.388712
v -43.184357 21.393181 22.388712
v -108.049118 23.454309 22.388700
v -108.049118 21.393181 22.388700
v -119.178780 23.454309 22.388712
v -119.178780 21.393181 22.388712
v -144.473511 23.454309 -29.740143
v -144.473511 21.393181 -29.740143
v -79.608704 23.454309 -29.740143
v -79.608704 21.393181 -29.740143
v -1.062405 23.454309 -29.740147
v -1.062405 21.393181 -29.740147
v -65.486488 23.454309 -29.740147
v -65.486488 21.393181 -29.740147
v 10.067245 23.454309 -29.740154
v 10.067253 21.393181 -29.740154
v -68.479050 23.454311 -29.740150
v -68.479050 21.393181 -29.740150
v -82.754478 23.454309 -29.740189
v -82.754478 21.393181 -29.740189
v -3.767475 23.454309 -29.740192
v -3.767475 21.393181 -29.740192
vn 0.0000 -1.0000 0.0000
vn 0.0000 1.0000 0.0000
vn 1.0000 0.0000 0.0000
vn -1.0000 0.0000 0.0000
vn 0.0000 0.0000 -1.0000
vn 0.0000 0.0000 1.0000
vn -0.8997 0.0000 0.4366
vn 0.8997 0.0000 0.4366
vn -0.8997 0.0000 -0.4366
vn 0.8997 0.0000 -0.4366
usemtl None
s off
f 1//1 18//1 20//1 36//1 32//1 16//1 14//1 12//1 10//1 2//1
f 6//2 7//2 9//2 11//2 13//2 15//2 19//2 17//2 27//2 37//2 21//2 23//2 25//2 5//2
f 2//3 4//3 8//3 7//3
f 3//4 1//4 6//4 5//4
f 4//5 3//5 5//5 8//5
f 1//6 2//6 7//6 6//6
f 24//7 23//7 25//7 26//7
f 2//1 10//1 34//1 30//1 12//1 14//1 40//1 32//1 36//1 28//1 38//1 26//1 3//1 4//1
f 3//1 26//1 24//1 22//1 38//1 28//1 18//1 1//1
f 38//8 37//8 21//8 22//8
f 40//8 39//8 13//8 14//8
f 22//6 21//6 23//6 24//6
f 5//2 25//2 37//2 27//2 35//2 19//2 15//2 31//2 39//2 8//2
f 8//2 39//2 13//2 11//2 29//2 33//2 9//2 7//2
f 18//9 17//9 27//9 28//9
f 32//5 31//5 39//5 40//5
f 26//5 25//5 37//5 38//5
f 10//6 9//6 11//6 12//6
f 34//10 33//10 9//10 10//10
f 14//6 13//6 15//6 16//6
f 30//5 29//5 33//5 34//5
f 36//10 35//10 19//10 20//10
f 12//9 11//9 29//9 30//9
f 16//7 15//7 31//7 32//7
f 28//5 27//5 35//5 36//5
f 20//6 19//6 17//6 18//6
