# Blender v2.79 (sub 6) OBJ File: 'plantilla_hologramas2.blend'
# www.blender.org
mtllib plantilla_hologramas2.mtl
o Circle.001
v -53.592995 21.393198 23.426197
v -55.063915 21.393198 23.572880
v -56.478306 21.393198 24.007290
v -57.781818 21.393198 24.712730
v -58.924355 21.393198 25.662094
v -59.862011 21.393198 26.818899
v -60.558754 21.393198 28.138687
v -60.987804 21.393198 29.570740
v -61.132675 21.393198 31.060026
v -60.987804 21.393198 32.549313
v -60.558754 21.393198 33.981365
v -59.862011 21.393198 35.301155
v -58.924355 21.393198 36.457958
v -57.781818 21.393198 37.407322
v -56.478306 21.393198 38.112762
v -55.063911 21.393198 38.547173
v -53.592991 21.393198 38.693855
v -52.122074 21.393198 38.547173
v -50.707680 21.393198 38.112762
v -49.404167 21.393198 37.407318
v -48.261631 21.393198 36.457954
v -47.323975 21.393198 35.301147
v -46.627235 21.393198 33.981361
v -46.198185 21.393198 32.549305
v -46.053314 21.393198 31.060019
v -46.198189 21.393198 29.570732
v -46.627239 21.393198 28.138680
v -47.323982 21.393198 26.818890
v -48.261642 21.393198 25.662088
v -49.404182 21.393198 24.712725
v -50.707695 21.393198 24.007284
v -52.122086 21.393198 23.572878
v -55.063915 23.893194 23.572880
v -53.592995 23.893194 23.426197
v -56.478306 23.893194 24.007290
v -57.781818 23.893194 24.712730
v -58.924355 23.893194 25.662094
v -59.862011 23.893194 26.818899
v -60.558754 23.893194 28.138687
v -60.987804 23.893194 29.570740
v -61.132675 23.893194 31.060026
v -60.987804 23.893194 32.549313
v -60.558754 23.893194 33.981365
v -59.862011 23.893194 35.301155
v -58.924355 23.893194 36.457958
v -57.781818 23.893194 37.407322
v -56.478306 23.893194 38.112762
v -55.063911 23.893194 38.547173
v -53.592991 23.893194 38.693855
v -52.122074 23.893194 38.547173
v -50.707680 23.893194 38.112762
v -49.404167 23.893194 37.407318
v -48.261631 23.893194 36.457954
v -47.323975 23.893194 35.301147
v -46.627235 23.893194 33.981361
v -46.198185 23.893194 32.549305
v -46.053314 23.893194 31.060019
v -46.198189 23.893194 29.570732
v -46.627239 23.893194 28.138680
v -47.323982 23.893194 26.818890
v -48.261642 23.893194 25.662088
v -49.404182 23.893194 24.712725
v -50.707695 23.893194 24.007284
v -52.122086 23.893194 23.572878
v -53.592999 21.393198 -47.306137
v -55.063919 21.393198 -47.159454
v -56.478310 21.393198 -46.725044
v -57.781822 21.393198 -46.019600
v -58.924358 21.393198 -45.070236
v -59.862015 21.393198 -43.913437
v -60.558754 21.393198 -42.593651
v -60.987808 21.393198 -41.161591
v -61.132679 21.393198 -39.672310
v -60.987808 21.393198 -38.183022
v -60.558758 21.393198 -36.750969
v -59.862015 21.393198 -35.431175
v -58.924358 21.393198 -34.274376
v -57.781822 21.393198 -33.325012
v -56.478310 21.393198 -32.619568
v -55.063915 21.393198 -32.185165
v -53.592995 21.393198 -32.038483
v -52.122078 21.393198 -32.185165
v -50.707684 21.393198 -32.619576
v -49.404171 21.393198 -33.325020
v -48.261635 21.393198 -34.274376
v -47.323978 21.393198 -35.431183
v -46.627239 21.393198 -36.750977
v -46.198189 21.393198 -38.183022
v -46.053318 21.393198 -39.672318
v -46.198193 21.393198 -41.161606
v -46.627243 21.393198 -42.593658
v -47.323986 21.393198 -43.913445
v -48.261646 21.393198 -45.070244
v -49.404182 21.393198 -46.019608
v -50.707699 21.393198 -46.725044
v -52.122089 21.393198 -47.159454
v -55.063919 23.893194 -47.159454
v -53.592999 23.893194 -47.306137
v -56.478310 23.893194 -46.725044
v -57.781822 23.893196 -46.019600
v -58.924358 23.893196 -45.070236
v -59.862015 23.893196 -43.913437
v -60.558754 23.893196 -42.593651
v -60.987808 23.893196 -41.161591
v -61.132679 23.893196 -39.672310
v -60.987808 23.893196 -38.183022
v -60.558758 23.893196 -36.750969
v -59.862015 23.893196 -35.431175
v -58.924358 23.893196 -34.274376
v -57.781822 23.893196 -33.325012
v -56.478310 23.893194 -32.619568
v -55.063915 23.893194 -32.185165
v -53.592995 23.893194 -32.038483
v -52.122078 23.893194 -32.185165
v -50.707684 23.893194 -32.619576
v -49.404171 23.893194 -33.325020
v -48.261635 23.893194 -34.274376
v -47.323978 23.893194 -35.431183
v -46.627239 23.893194 -36.750977
v -46.198189 23.893194 -38.183022
v -46.053318 23.893194 -39.672318
v -46.198193 23.893194 -41.161606
v -46.627243 23.893194 -42.593658
v -47.323986 23.893194 -43.913445
v -48.261646 23.893194 -45.070244
v -49.404182 23.893194 -46.019608
v -50.707699 23.893194 -46.725044
v -52.122089 23.893194 -47.159454
v -147.744934 21.393200 26.108572
v 42.255043 21.393194 26.108561
v -147.744934 21.393200 -34.962051
v 42.255043 21.393194 -34.962067
v -147.744934 23.454327 -34.962051
v -147.744934 23.454327 26.108572
v 42.255043 23.454321 26.108561
v 42.255043 23.454321 -34.962067
v 36.323311 23.454323 22.233978
v 36.323311 21.393196 22.233978
v -26.052294 23.454323 22.234009
v -26.052296 21.393198 22.234009
v -28.786121 23.454323 22.233967
v -28.786127 21.393198 22.233967
v -40.034176 23.454323 22.233978
v -40.034176 21.393198 22.233982
v -105.434189 23.454327 22.234016
v -105.434181 21.393200 22.234013
v -43.058594 23.454325 22.233982
v -43.058594 21.393198 22.233982
v -108.613403 23.454327 22.233974
v -108.613403 21.393200 22.233974
v -119.861465 23.454327 22.233986
v -119.861465 21.393200 22.233986
v -145.425278 23.454327 -30.825052
v -145.425278 21.393200 -30.825052
v -79.870430 23.454325 -30.825052
v -79.870430 21.393198 -30.825052
v -0.488537 23.454323 -30.825064
v -0.488537 21.393196 -30.825064
v -65.597977 23.454325 -30.825060
v -65.597977 21.393198 -30.825060
v 10.759514 23.454323 -30.825071
v 10.759514 21.393196 -30.825071
v -68.622375 23.454325 -30.825064
v -68.622375 21.393198 -30.825064
v -83.049667 23.454325 -30.825098
v -83.049667 21.393198 -30.825098
v -3.222385 23.454323 -30.825109
v -3.222385 21.393196 -30.825109
vn 0.0000 -1.0000 -0.0000
vn 0.0000 1.0000 0.0000
vn 0.2936 0.0000 0.9559
vn -0.7769 0.0000 -0.6297
vn 0.0992 0.0000 -0.9951
vn 0.4760 0.0000 0.8795
vn -0.8843 0.0000 -0.4669
vn 0.6391 0.0000 0.7691
vn -0.9579 0.0000 -0.2870
vn 0.7769 0.0000 0.6297
vn -0.9953 0.0000 -0.0968
vn 0.8843 0.0000 0.4669
vn -0.9953 0.0000 0.0968
vn 0.9579 0.0000 0.2870
vn -0.9579 0.0000 0.2870
vn 0.9953 0.0000 0.0968
vn -0.8843 0.0000 0.4669
vn 0.9953 0.0000 -0.0968
vn -0.7769 0.0000 0.6297
vn 0.9579 0.0000 -0.2870
vn -0.6391 0.0000 0.7691
vn 0.8843 0.0000 -0.4669
vn -0.4760 0.0000 0.8795
vn -0.0992 0.0000 -0.9951
vn 0.7768 0.0000 -0.6297
vn -0.2936 0.0000 0.9559
vn -0.2936 0.0000 -0.9559
vn 0.6391 0.0000 -0.7691
vn -0.0992 0.0000 0.9951
vn -0.4760 0.0000 -0.8795
vn 0.4760 0.0000 -0.8795
vn 0.0992 0.0000 0.9951
vn -0.6391 0.0000 -0.7691
vn 0.2936 0.0000 -0.9559
vn 1.0000 0.0000 0.0000
vn -1.0000 0.0000 0.0000
vn -0.0000 0.0000 -1.0000
vn 0.0000 0.0000 1.0000
vn -0.9009 0.0000 0.4340
vn 0.9009 0.0000 0.4340
vn -0.9009 0.0000 -0.4340
vn 0.9009 0.0000 -0.4340
usemtl None
s off
f 2//1 1//1 32//1 31//1 30//1 29//1 28//1 27//1 26//1 25//1 24//1 23//1 22//1 21//1 20//1 19//1 18//1 17//1 16//1 15//1 14//1 13//1 12//1 11//1 10//1 9//1 8//1 7//1 6//1 5//1 4//1 3//1
f 33//2 35//2 36//2 37//2 38//2 39//2 40//2 41//2 42//2 43//2 44//2 45//2 46//2 47//2 48//2 49//2 50//2 51//2 52//2 53//2 54//2 55//2 56//2 57//2 58//2 59//2 60//2 61//2 62//2 63//2 64//2 34//2
f 18//3 19//3 51//3 50//3
f 5//4 6//4 38//4 37//4
f 32//5 1//5 34//5 64//5
f 19//6 20//6 52//6 51//6
f 6//7 7//7 39//7 38//7
f 20//8 21//8 53//8 52//8
f 7//9 8//9 40//9 39//9
f 21//10 22//10 54//10 53//10
f 8//11 9//11 41//11 40//11
f 22//12 23//12 55//12 54//12
f 9//13 10//13 42//13 41//13
f 23//14 24//14 56//14 55//14
f 10//15 11//15 43//15 42//15
f 24//16 25//16 57//16 56//16
f 11//17 12//17 44//17 43//17
f 25//18 26//18 58//18 57//18
f 12//19 13//19 45//19 44//19
f 26//20 27//20 59//20 58//20
f 13//21 14//21 46//21 45//21
f 27//22 28//22 60//22 59//22
f 14//23 15//23 47//23 46//23
f 1//24 2//24 33//24 34//24
f 28//25 29//25 61//25 60//25
f 15//26 16//26 48//26 47//26
f 2//27 3//27 35//27 33//27
f 29//28 30//28 62//28 61//28
f 16//29 17//29 49//29 48//29
f 3//30 4//30 36//30 35//30
f 30//31 31//31 63//31 62//31
f 17//32 18//32 50//32 49//32
f 4//33 5//33 37//33 36//33
f 31//34 32//34 64//34 63//34
f 66//1 65//1 96//1 95//1 94//1 93//1 92//1 91//1 90//1 89//1 88//1 87//1 86//1 85//1 84//1 83//1 82//1 81//1 80//1 79//1 78//1 77//1 76//1 75//1 74//1 73//1 72//1 71//1 70//1 69//1 68//1 67//1
f 97//2 99//2 100//2 101//2 102//2 103//2 104//2 105//2 106//2 107//2 108//2 109//2 110//2 111//2 112//2 113//2 114//2 115//2 116//2 117//2 118//2 119//2 120//2 121//2 122//2 123//2 124//2 125//2 126//2 127//2 128//2 98//2
f 82//3 83//3 115//3 114//3
f 69//4 70//4 102//4 101//4
f 96//5 65//5 98//5 128//5
f 83//6 84//6 116//6 115//6
f 70//7 71//7 103//7 102//7
f 84//8 85//8 117//8 116//8
f 71//9 72//9 104//9 103//9
f 85//10 86//10 118//10 117//10
f 72//11 73//11 105//11 104//11
f 86//12 87//12 119//12 118//12
f 73//13 74//13 106//13 105//13
f 87//14 88//14 120//14 119//14
f 74//15 75//15 107//15 106//15
f 88//16 89//16 121//16 120//16
f 75//17 76//17 108//17 107//17
f 89//18 90//18 122//18 121//18
f 76//19 77//19 109//19 108//19
f 90//20 91//20 123//20 122//20
f 77//21 78//21 110//21 109//21
f 91//22 92//22 124//22 123//22
f 78//23 79//23 111//23 110//23
f 65//24 66//24 97//24 98//24
f 92//25 93//25 125//25 124//25
f 79//26 80//26 112//26 111//26
f 66//27 67//27 99//27 97//27
f 93//28 94//28 126//28 125//28
f 80//29 81//29 113//29 112//29
f 67//30 68//30 100//30 99//30
f 94//31 95//31 127//31 126//31
f 81//32 82//32 114//32 113//32
f 68//33 69//33 101//33 100//33
f 95//34 96//34 128//34 127//34
f 129//1 146//1 148//1 164//1 160//1 144//1 142//1 140//1 138//1 130//1
f 134//2 135//2 137//2 139//2 141//2 143//2 147//2 145//2 155//2 165//2 149//2 151//2 153//2 133//2
f 130//35 132//35 136//35 135//35
f 131//36 129//36 134//36 133//36
f 132//37 131//37 133//37 136//37
f 129//38 130//38 135//38 134//38
f 152//39 151//39 153//39 154//39
f 130//1 138//1 162//1 158//1 140//1 142//1 168//1 160//1 164//1 156//1 166//1 154//1 131//1 132//1
f 131//1 154//1 152//1 150//1 166//1 156//1 146//1 129//1
f 166//40 165//40 149//40 150//40
f 168//40 167//40 141//40 142//40
f 150//38 149//38 151//38 152//38
f 133//2 153//2 165//2 155//2 163//2 147//2 143//2 159//2 167//2 136//2
f 136//2 167//2 141//2 139//2 157//2 161//2 137//2 135//2
f 146//41 145//41 155//41 156//41
f 160//37 159//37 167//37 168//37
f 154//37 153//37 165//37 166//37
f 138//38 137//38 139//38 140//38
f 162//42 161//42 137//42 138//42
f 142//38 141//38 143//38 144//38
f 158//37 157//37 161//37 162//37
f 164//42 163//42 147//42 148//42
f 140//41 139//41 157//41 158//41
f 144//39 143//39 159//39 160//39
f 156//37 155//37 163//37 164//37
f 148//38 147//38 145//38 146//38
